# xmcd
#
# Track frame offsets: 
#        150
#        29302
#        48877
#        80587
#        105741
#        126503
#        137435
#        163982
#        183111
#        199365
#
# Disc length: 2748 seconds
#
# Revision: 4
# Processed by: cddbd v1.5.2PL0 Copyright (c) Steve Scherf et al.
# Submitted via: ExactAudioCopy v0.95a4
#
DISCID=880aba0a
DTITLE=Chuck Leavell - Live in Germany - Green Leaves and Blue Notes Tou
DTITLE=r (1 of 2)
DYEAR=2007
DGENRE=Blues
TTITLE0=In the Wee Wee Hours
TTITLE1=Route 66
TTITLE2=Living in a Dream
TTITLE3=King Grand
TTITLE4=Honky Tonk Woman
TTITLE5=Rip This Joint
TTITLE6=Coming Home
TTITLE7=Down the Road a Piece
TTITLE8=Alberta, Alberta
TTITLE9=Band Introductions
EXTD=Disc 1
EXTT0=
EXTT1=
EXTT2=
EXTT3=
EXTT4=
EXTT5=
EXTT6=
EXTT7=
EXTT8=
EXTT9=
PLAYORDER=
